HIERARCHY
ROOT Hips
{
	OFFSET 0.000000 0.000000 0.000000
	CHANNELS 6 Xposition Yposition Zposition Zrotation Yrotation Xrotation 
	JOINT LHipJoint
	{
		OFFSET 0.000000 0.000000 0.000000
		CHANNELS 3 Zrotation Yrotation Xrotation
		JOINT LeftUpLeg
		{
			OFFSET 1.363060 -1.794630 0.839290
			CHANNELS 3 Zrotation Yrotation Xrotation
			JOINT LeftLeg
			{
				OFFSET 2.448110 -6.726130 0.000000
				CHANNELS 3 Zrotation Yrotation Xrotation
				JOINT LeftFoot
				{
					OFFSET 2.562200 -7.039590 0.000000
					CHANNELS 3 Zrotation Yrotation Xrotation
					JOINT LeftToeBase
					{
						OFFSET 0.157640 -0.433110 2.322550
						CHANNELS 3 Zrotation Yrotation Xrotation
						End Site
						{
							OFFSET 0.000000 0.000000 0.000000
						}
					}
				}
			}
		}
	}
	JOINT RHipJoint
	{
		OFFSET 0.000000 0.000000 0.000000
		CHANNELS 3 Zrotation Yrotation Xrotation
		JOINT RightUpLeg
		{
			OFFSET -1.305520 -1.794630 0.839290
			CHANNELS 3 Zrotation Yrotation Xrotation
			JOINT RightLeg
			{
				OFFSET -2.542530 -6.985550 0.000000
				CHANNELS 3 Zrotation Yrotation Xrotation
				JOINT RightFoot
				{
					OFFSET -2.568260 -7.056230 0.000000
					CHANNELS 3 Zrotation Yrotation Xrotation
					JOINT RightToeBase
					{
						OFFSET -0.164730 -0.452590 2.363150
						CHANNELS 3 Zrotation Yrotation Xrotation
						End Site
						{
							OFFSET 0.000000 0.000000 0.000000
						}
					}
				}
			}
		}
	}
	JOINT LowerBack
	{
		OFFSET 0.000000 0.000000 0.000000
		CHANNELS 3 Zrotation Yrotation Xrotation
		JOINT Spine
		{
			OFFSET 0.028270 2.035590 -0.193380
			CHANNELS 3 Zrotation Yrotation Xrotation
			JOINT Spine1
			{
				OFFSET 0.056720 2.048850 -0.042750
				CHANNELS 3 Zrotation Yrotation Xrotation
				JOINT Neck
				{
					OFFSET 0.000000 0.000000 0.000000
					CHANNELS 3 Zrotation Yrotation Xrotation
					JOINT Neck1
					{
						OFFSET -0.054170 1.746240 0.172020
						CHANNELS 3 Zrotation Yrotation Xrotation
						JOINT Head
						{
							OFFSET 0.104070 1.761360 -0.123970
							CHANNELS 3 Zrotation Yrotation Xrotation
							End Site
							{
								OFFSET 0.000000 0.000000 0.000000
							}
						}
					}
				}
				JOINT LeftShoulder
				{
					OFFSET 0.000000 0.000000 0.000000
					CHANNELS 3 Zrotation Yrotation Xrotation
					JOINT LeftArm
					{
						OFFSET 3.362410 1.200890 -0.311210
						CHANNELS 3 Zrotation Yrotation Xrotation
						JOINT LeftForeArm
						{
							OFFSET 4.983000 -0.000000 -0.000000
							CHANNELS 3 Zrotation Yrotation Xrotation
							JOINT LeftHand
							{
								OFFSET 3.483560 -0.000000 -0.000000
								CHANNELS 3 Zrotation Yrotation Xrotation
								JOINT LeftFingerBase
								{
									OFFSET 0.000000 0.000000 0.000000
									CHANNELS 3 Zrotation Yrotation Xrotation
									JOINT LeftHandIndex1
									{
										OFFSET 0.715260 -0.000000 -0.000000
										CHANNELS 3 Zrotation Yrotation Xrotation
										End Site
										{
											OFFSET 0.000000 0.000000 0.000000
										}
									}
								}
								JOINT LThumb
								{
									OFFSET 0.000000 0.000000 0.000000
									CHANNELS 3 Zrotation Yrotation Xrotation
									End Site
									{
										OFFSET 0.000000 0.000000 0.000000
									}
								}
							}
						}
					}
				}
				JOINT RightShoulder
				{
					OFFSET 0.000000 0.000000 0.000000
					CHANNELS 3 Zrotation Yrotation Xrotation
					JOINT RightArm
					{
						OFFSET -3.136600 1.374050 -0.404650
						CHANNELS 3 Zrotation Yrotation Xrotation
						JOINT RightForeArm
						{
							OFFSET -5.241900 -0.000000 -0.000000
							CHANNELS 3 Zrotation Yrotation Xrotation
							JOINT RightHand
							{
								OFFSET -3.444170 -0.000000 -0.000000
								CHANNELS 3 Zrotation Yrotation Xrotation
								JOINT RightFingerBase
								{
									OFFSET 0.000000 0.000000 0.000000
									CHANNELS 3 Zrotation Yrotation Xrotation
									JOINT RightHandIndex1
									{
										OFFSET -0.622530 -0.000000 -0.000000
										CHANNELS 3 Zrotation Yrotation Xrotation
										End Site
										{
											OFFSET 0.000000 0.000000 0.000000
										}
									}
								}
								JOINT RThumb
								{
									OFFSET 0.000000 0.000000 0.000000
									CHANNELS 3 Zrotation Yrotation Xrotation
									End Site
									{
										OFFSET 0.000000 0.000000 0.000000
									}
								}
							}
						}
					}
				}
			}
		}
	}
}
MOTION
Frames: 11
Frame Time: 0.008333
7.281482 17.673739 -50.059675 -5.068066 2.943432 17.708895 -3.347147 -4.665737 -4.768104 -8.567848 1.046661 -56.333930 5.969592 16.267282 48.737261 2.734169 -9.210043 19.595970 0.719900 -5.421800 -15.115700 7.050869 1.311658 4.724714 22.381990 -0.121717 1.073311 -4.617744 -13.811106 39.154178 -0.445716 -15.980716 33.468403 -0.086200 1.894200 -5.213300 7.637615 3.478454 15.898160 1.841088 5.871635 -2.219803 -3.641954 2.984057 -7.659364 -2.826135 -3.348672 -17.394001 2.605416 -4.542090 -0.712945 -0.260500 -2.604400 6.355300 -4.701811 -3.326303 -2.888665 -65.629646 50.555508 40.751989 94.205745 -64.330291 -72.560611 -0.625225 -1.669343 -18.317123 27.856157 -5.802705 -2.326400 -7.125000 0.000000 0.000000 1.769700 25.176200 -0.849200 3.721996 3.327298 -1.398926 70.748795 -1.050964 40.980261 -122.177455 51.737160 -89.788370 1.425035 -1.124127 -4.608446 -29.218428 4.040744 -3.178500 7.125000 0.000000 0.000000 -2.867700 -23.720600 -1.473600 
7.278812 17.630808 -49.544807 -4.617624 3.400359 17.181968 -3.576715 -4.669688 -4.510735 -9.072965 0.957116 -54.153638 5.921450 16.231168 48.768531 2.830525 -9.753475 19.502611 0.986800 -6.322900 -17.724200 6.868520 1.477320 4.401366 22.184008 -0.781888 -0.359246 -5.688236 -14.762745 43.216578 -0.128419 -14.905322 31.368525 -0.041100 1.308700 -3.598500 7.400930 3.236254 16.065026 1.824740 5.532052 -2.182841 -3.538575 2.811444 -7.698192 -3.039902 -3.396843 -17.432025 2.770216 -4.520510 -0.621539 -0.177300 -2.583900 6.410000 -4.733106 -3.418964 -2.949404 -67.399495 49.509402 39.429997 94.513246 -64.042734 -72.717863 -0.599156 -1.634462 -18.339547 27.182835 -5.702950 -2.226900 -7.125000 0.000000 0.000000 1.238800 25.276100 -0.591400 3.708556 3.441747 -1.407690 71.492756 -2.434135 40.704532 -118.808784 52.964916 -86.787129 1.433276 -1.117333 -4.894099 -29.135177 3.412542 -2.805300 7.125000 0.000000 0.000000 -2.848300 -24.443300 -1.416100 
7.277579 17.582330 -49.025831 -4.087165 3.804530 16.747027 -3.824270 -4.654473 -4.222259 -9.507643 0.734497 -51.842583 5.832252 16.168979 48.719984 3.016378 -10.966928 18.751218 0.558900 -4.788400 -13.306100 6.703796 1.628489 4.067141 21.741095 -1.413607 -2.049293 -6.857621 -15.680918 47.453134 0.109960 -13.795111 29.412622 -0.041500 1.315600 -3.617600 7.078779 3.101439 16.110129 1.761533 5.304137 -2.160757 -3.552729 2.700917 -7.699920 -3.126803 -3.528823 -17.324603 2.895930 -4.657865 -0.513214 -0.140900 -2.640400 6.433200 -4.793838 -3.492508 -2.925402 -68.538269 48.141344 38.718903 94.433399 -63.745001 -72.695437 -0.537100 -1.528847 -18.097137 24.968785 -8.071719 -3.209400 -7.125000 0.000000 0.000000 -0.576900 22.634700 0.310500 3.678749 3.534686 -1.442716 72.466869 -4.061117 39.986327 -115.167560 54.119670 -83.544298 1.440989 -1.125904 -5.082970 -29.008426 2.928859 -2.521200 7.125000 0.000000 0.000000 -2.784500 -24.986100 -1.349200 
7.278093 17.530464 -48.508601 -3.642734 3.846020 16.226499 -4.057005 -4.593355 -3.893025 -9.852287 0.762584 -49.385691 5.739760 16.123084 48.846527 3.457696 -14.269299 17.878658 0.007800 -0.571200 -1.569600 6.543509 1.739598 3.736804 21.138566 -1.799684 -3.610253 -8.033912 -16.501874 51.594635 0.323559 -12.659467 27.331362 -0.080900 1.835000 -5.050000 6.698299 3.073005 16.301116 1.686407 5.216257 -2.124628 -3.595653 2.657126 -7.737271 -3.188184 -3.618511 -17.115114 3.053211 -4.751435 -0.497463 -0.083600 -2.673300 6.399300 -4.863219 -3.565625 -2.861106 -69.508345 46.599991 38.086501 94.889998 -63.469320 -72.986756 -0.528322 -1.468034 -17.970604 24.847045 -8.677586 -3.504300 -7.125000 0.000000 0.000000 -0.714100 21.912000 0.396000 3.654443 3.627340 -1.487183 73.458085 -5.661868 39.211747 -111.017897 55.215193 -79.829346 1.444303 -1.153443 -5.316470 -29.037060 2.819915 -2.483000 7.125000 0.000000 0.000000 -2.807400 -25.065600 -1.355200 
7.282201 17.458980 -47.997122 -3.109782 4.161022 15.804731 -4.319854 -4.499377 -3.542791 -10.279054 0.477774 -46.906978 5.861485 16.159685 49.165495 3.623543 -15.323442 15.151509 0.002200 0.305700 0.840000 6.399797 1.849018 3.404190 20.453056 -2.369493 -5.468545 -9.294673 -17.259421 55.802086 0.563252 -11.850728 25.136595 -0.108400 2.122400 -5.844200 6.374828 2.852935 16.468077 1.629646 4.890635 -2.107808 -3.616705 2.489299 -7.820820 -3.243806 -3.627726 -17.181762 3.150003 -4.732799 -0.374779 -0.053100 -2.655000 6.464800 -4.926308 -3.665985 -2.817288 -70.940451 44.845730 37.079185 94.813220 -63.135031 -72.901769 -0.540543 -1.439671 -17.393102 25.045260 -8.427586 -3.424000 -7.125000 0.000000 0.000000 -0.567500 22.151100 0.311700 3.643066 3.735599 -1.540838 74.357475 -7.167669 38.572197 -106.262514 56.221273 -75.536173 1.448959 -1.173784 -5.465826 -29.151939 2.575323 -2.369400 7.125000 0.000000 0.000000 -2.906400 -25.306400 -1.386800 
7.290212 17.390372 -47.494066 -2.701527 4.323857 15.458273 -4.524951 -4.383971 -3.211564 -10.580376 0.295530 -44.748335 6.103873 16.250707 49.692401 3.776791 -15.881672 12.030566 0.041800 1.320100 3.630000 6.249947 1.949743 3.060251 19.759663 -2.699338 -7.500881 -10.619400 -17.938867 60.021290 0.788275 -11.358385 23.125100 -0.098400 2.022500 -5.567800 6.125121 2.647984 16.619018 1.592125 4.599567 -2.090570 -3.606011 2.334407 -7.881226 -3.326594 -3.575254 -17.190848 3.236345 -4.630245 -0.359489 -0.005400 -2.599800 6.471200 -4.987431 -3.764754 -2.750779 -72.287978 42.974643 36.097681 94.864584 -62.818765 -72.919689 -0.549913 -1.401361 -16.666196 25.179849 -8.364644 -3.425400 -7.125000 0.000000 0.000000 -0.481100 22.180500 0.263900 3.652990 3.830319 -1.599361 75.086034 -8.487892 37.987282 -100.765890 57.107377 -70.585910 1.455929 -1.205542 -5.817631 -29.643285 2.698507 -2.519500 7.125000 0.000000 0.000000 -3.261800 -25.080900 -1.574000 
7.307569 17.325461 -46.994193 -2.103874 4.647456 15.147950 -4.726295 -4.269098 -2.891702 -11.130672 -0.065139 -42.741260 6.375941 16.360128 50.281774 3.940710 -16.246712 8.846267 0.062800 1.616800 4.447700 6.098780 2.041557 2.727863 18.774537 -3.202988 -9.749340 -11.979655 -18.526264 64.255400 0.970121 -10.840900 21.138229 -0.064200 1.634500 -4.496500 5.868010 2.349568 16.796769 1.533527 4.179827 -2.080779 -3.677715 2.118374 -7.964710 -3.298631 -3.473199 -17.161564 3.209571 -4.509489 -0.436181 -0.015900 -2.545300 6.424800 -5.053335 -3.877799 -2.654841 -73.563428 40.850728 35.257027 95.065929 -62.494346 -73.041615 -0.550686 -1.368802 -16.084968 25.185176 -8.198868 -3.355400 -7.125000 0.000000 0.000000 -0.486900 22.336400 0.265300 3.659864 3.916683 -1.663427 75.824382 -9.749535 37.162138 -94.905556 57.785473 -65.336624 1.443577 -1.214680 -5.648470 -29.510841 2.352747 -2.304000 7.125000 0.000000 0.000000 -3.176900 -25.481300 -1.503300 
7.321743 17.252848 -46.504694 -1.444192 4.720347 14.827779 -4.908670 -4.146971 -2.568149 -11.772412 -0.361484 -40.862292 6.614366 16.454159 50.831495 4.091358 -16.546702 6.407572 0.154400 2.531600 6.977300 5.940897 2.128006 2.387518 17.589224 -3.400154 -12.062284 -13.386745 -19.024741 68.547457 1.135417 -10.378258 19.104354 -0.071400 1.723500 -4.742000 5.372579 2.072146 17.156660 1.476876 3.759743 -2.104806 -3.589428 1.895478 -8.256191 -3.582463 -3.319562 -17.192404 3.557533 -4.188708 -0.351284 0.198900 -2.362100 6.492500 -5.131481 -3.961190 -2.574984 -74.864975 38.734523 34.415434 95.607496 -62.183123 -73.376802 -0.555694 -1.385793 -15.831354 25.729372 -6.632273 -2.649300 -7.125000 0.000000 0.000000 -0.023400 24.066200 0.011800 3.665705 4.063842 -1.731038 76.427744 -11.091505 36.356701 -88.445912 58.219348 -59.625511 1.417148 -1.238141 -5.673527 -29.515329 2.635745 -2.482500 7.125000 0.000000 0.000000 -3.139900 -25.129500 -1.511400 
7.330884 17.173558 -46.025260 -0.418955 4.730127 14.793206 -5.102277 -4.043033 -2.262424 -12.836139 -0.808317 -39.149049 6.819008 16.519512 51.246049 4.172879 -16.065473 3.641458 0.123000 2.261100 6.227700 5.762337 2.227676 1.998010 15.942492 -3.465518 -14.793862 -14.832360 -19.428771 72.904150 1.215121 -9.690685 17.210241 -0.071600 1.725900 -4.748900 4.371048 1.795191 17.208789 1.423956 3.208748 -2.079206 -3.208363 1.648860 -8.208023 -3.687797 -3.084947 -17.450187 3.549430 -3.842582 -0.508953 0.220100 -2.203000 6.458400 -5.191663 -4.073995 -2.463542 -76.285126 35.948781 33.454403 95.748174 -61.843165 -73.431722 -0.615589 -1.370168 -16.032645 27.157906 -6.084028 -2.543300 -7.125000 0.000000 0.000000 1.105100 24.581500 -0.545300 3.715577 4.150060 -1.793966 76.771555 -12.080957 35.752664 -81.522391 58.316605 -53.653511 1.436530 -1.238194 -5.041515 -30.438220 2.325465 -2.386800 7.125000 0.000000 0.000000 -3.878900 -25.442600 -1.840300 
7.332116 17.103512 -45.553323 1.085088 4.607704 14.873917 -5.298763 -3.942475 -1.948943 -14.456674 -1.274581 -37.493916 6.938115 16.526771 51.415421 4.179443 -14.947265 0.648708 0.015800 0.812700 2.233700 5.550437 2.322072 1.578373 13.634598 -3.487782 -17.784181 -16.277369 -19.727895 77.220646 1.203897 -8.685387 15.339476 -0.074600 1.762500 -4.849700 2.789489 1.584604 17.261250 1.307388 2.619897 -2.064917 -2.732520 1.405788 -8.179151 -3.712279 -2.869500 -17.743498 3.496702 -3.548836 -0.647049 0.192900 -2.071900 6.437700 -5.265606 -4.189260 -2.333127 -77.359962 32.904623 32.750971 96.059003 -61.505739 -73.695802 -0.562486 -1.354908 -16.842114 25.584447 -6.334440 -2.514300 -7.125000 0.000000 0.000000 -0.110300 24.343100 0.055100 3.761307 4.237779 -1.865995 77.056292 -13.210652 35.017504 -74.915568 58.036939 -48.081114 1.434621 -1.206202 -5.039478 -30.532465 2.221075 -2.309500 7.125000 0.000000 0.000000 -3.959500 -25.600900 -1.864100 
7.325646 17.042710 -45.087857 2.791315 4.592136 15.060877 -5.494196 -3.831790 -1.629962 -16.039084 -2.095682 -35.631488 6.918948 16.458642 51.268147 4.273221 -14.766804 -1.401102 0.012100 0.710200 1.951700 5.291863 2.418779 1.133403 11.108329 -3.654218 -21.030519 -17.674124 -19.925255 81.341160 1.109154 -7.497711 13.685957 -0.094100 1.978300 -5.445800 0.938426 1.382798 17.322510 1.188497 1.987940 -2.087810 -2.078102 1.152401 -8.265658 -3.756448 -2.661584 -17.882008 3.404721 -3.271034 -0.882600 0.147700 -1.956300 6.354000 -5.327314 -4.299498 -2.190928 -78.129295 30.110352 32.338627 97.709408 -61.219822 -74.878360 -0.541525 -1.319758 -18.306640 25.520334 -6.455899 -2.594400 -7.125000 0.000000 0.000000 -0.166300 24.149200 0.083700 3.821392 4.315333 -1.951601 77.227119 -14.130980 34.156001 -67.740159 57.250960 -42.207422 1.474813 -1.147064 -5.362180 -31.188654 1.939696 -2.165600 7.125000 0.000000 0.000000 -4.505100 -25.950600 -2.085500 
